<svg width="19" height="19" viewBox="0 0 19 19" fill="none" xmlns="http://www.w3.org/2000/svg">
<g clip-path="url(#clip0_1063_1548)">
<path d="M9.5 0.791656V18.2083" stroke="#00A0A9" stroke-width="2" stroke-linecap="round" stroke-linejoin="round"/>
<path d="M13.4583 3.95834H7.52083C6.78596 3.95834 6.08119 4.25027 5.56156 4.7699C5.04193 5.28953 4.75 5.99431 4.75 6.72918C4.75 7.46405 5.04193 8.16882 5.56156 8.68845C6.08119 9.20808 6.78596 9.50001 7.52083 9.50001H11.4792C12.214 9.50001 12.9188 9.79194 13.4384 10.3116C13.9581 10.8312 14.25 11.536 14.25 12.2708C14.25 13.0057 13.9581 13.7105 13.4384 14.2301C12.9188 14.7498 12.214 15.0417 11.4792 15.0417H4.75" stroke="#00A0A9" stroke-width="2" stroke-linecap="round" stroke-linejoin="round"/>
</g>
<defs>
<clipPath id="clip0_1063_1548">
<rect width="19" height="19" fill="white"/>
</clipPath>
</defs>
</svg>
