<svg width="25" height="25" viewBox="0 0 25 25" fill="none" xmlns="http://www.w3.org/2000/svg">
<rect x="3" y="5" width="18" height="17" fill="#00A0A9"/>
<path d="M5.98218 1.42857L2.85718 5.59524V20.1786C2.85718 20.7311 3.07667 21.261 3.46737 21.6517C3.85807 22.0424 4.38798 22.2619 4.94051 22.2619H19.5238C20.0764 22.2619 20.6063 22.0424 20.997 21.6517C21.3877 21.261 21.6072 20.7311 21.6072 20.1786V5.59524L18.4822 1.42857H5.98218Z" stroke="#00A0A9" stroke-width="2" stroke-linecap="round" stroke-linejoin="round"/>
<path d="M2.85718 5.59524H21.6072" stroke="#00A0A9" stroke-width="2" stroke-linecap="round" stroke-linejoin="round"/>
<path d="M16.3988 9.7619C16.3988 10.867 15.9598 11.9268 15.1784 12.7082C14.397 13.4896 13.3372 13.9286 12.2321 13.9286C11.127 13.9286 10.0672 13.4896 9.28582 12.7082C8.50442 11.9268 8.06543 10.867 8.06543 9.7619" stroke="white" stroke-width="2" stroke-linecap="round" stroke-linejoin="round"/>
</svg>
