<svg width="19" height="19" viewBox="0 0 19 19" fill="none" xmlns="http://www.w3.org/2000/svg">
<g clip-path="url(#clip0_1063_1543)">
<path d="M12.6667 2.375H0.791748V12.6667H12.6667V2.375Z" stroke="#00A0A9" stroke-width="2" stroke-linecap="round" stroke-linejoin="round"/>
<path d="M12.6667 6.33334H15.8334L18.2084 8.70834V12.6667H12.6667V6.33334Z" stroke="#00A0A9" stroke-width="2" stroke-linecap="round" stroke-linejoin="round"/>
<path d="M4.35417 16.625C5.44723 16.625 6.33333 15.7389 6.33333 14.6458C6.33333 13.5528 5.44723 12.6667 4.35417 12.6667C3.2611 12.6667 2.375 13.5528 2.375 14.6458C2.375 15.7389 3.2611 16.625 4.35417 16.625Z" stroke="#00A0A9" stroke-width="2" stroke-linecap="round" stroke-linejoin="round"/>
<path d="M14.6459 16.625C15.739 16.625 16.6251 15.7389 16.6251 14.6458C16.6251 13.5528 15.739 12.6667 14.6459 12.6667C13.5529 12.6667 12.6667 13.5528 12.6667 14.6458C12.6667 15.7389 13.5529 16.625 14.6459 16.625Z" stroke="#00A0A9" stroke-width="2" stroke-linecap="round" stroke-linejoin="round"/>
</g>
<defs>
<clipPath id="clip0_1063_1543">
<rect width="19" height="19" fill="white"/>
</clipPath>
</defs>
</svg>
