<svg width="25" height="25" viewBox="0 0 25 25" fill="none" xmlns="http://www.w3.org/2000/svg">
<path d="M20.9821 22.0833V19.9405C20.9821 18.8038 20.5306 17.7137 19.7268 16.91C18.9231 16.1063 17.833 15.6548 16.6964 15.6548H8.12495C6.98831 15.6548 5.89822 16.1063 5.09449 16.91C4.29076 17.7137 3.83923 18.8038 3.83923 19.9405V22.0833" stroke="#00A0A9" stroke-width="2" stroke-linecap="round" stroke-linejoin="round"/>
<path d="M12.5 11.4583C14.8012 11.4583 16.6667 9.59285 16.6667 7.29167C16.6667 4.99048 14.8012 3.125 12.5 3.125C10.1989 3.125 8.33337 4.99048 8.33337 7.29167C8.33337 9.59285 10.1989 11.4583 12.5 11.4583Z" stroke="#00A0A9" stroke-width="2" stroke-linecap="round" stroke-linejoin="round"/>
<rect x="8.125" y="3.5119" width="8.57143" height="7.85714" rx="3.92857" fill="#00A0A9"/>
<rect x="3.83923" y="15.6548" width="17.1429" height="7.14286" rx="3.57143" fill="#00A0A9"/>
<rect width="17.8571" height="2.85714" transform="translate(3.83923 19.9405)" fill="#00A0A9"/>
</svg>
