<svg width="25" height="25" viewBox="0 0 25 25" fill="none" xmlns="http://www.w3.org/2000/svg">
<path d="M6.94043 1.00977H6.94141C8.41227 1.09874 9.93642 1.78958 11.2021 3.1084L11.4521 3.38086L11.4531 3.38184L11.75 3.71875L12.501 4.57324L13.252 3.71875L13.5479 3.38184L13.5488 3.38086C16.0877 0.488721 19.8275 0.254626 22.125 2.59668L22.3428 2.83105H22.3438C24.6368 5.44176 24.5386 9.92468 22.1094 12.96L21.8672 13.249L20.9287 14.3174H20.9277L12.502 23.916L4.07324 14.3174H4.07227L3.13379 13.249C0.471376 10.2159 0.288444 5.52612 2.65332 2.8291L2.6543 2.83008C3.74644 1.58746 5.18864 0.991976 6.64844 1L6.94043 1.00977Z" stroke="#00A0A9" stroke-width="2"/>
</svg>
